<svg version="1.1" id="Ebene_1" xmlns="http://www.w3.org/2000/svg" xmlns:xlink="http://www.w3.org/1999/xlink" x="0px" y="0px" viewBox="0 0 850.4 96.4" style="enable-background:new 0 0 850.4 96.4;" xml:space="preserve">
<style type="text/css">
	.st0{fill:url(#SVGID_1_);}
	.st1{fill:url(#SVGID_00000033353494718962311080000007734844492237953464_);}
	.st2{fill:url(#SVGID_00000031206427792377469190000008430997016298766010_);}
	.st3{fill:url(#SVGID_00000145763954489140388440000004116958652142298784_);}
	.st4{fill:url(#SVGID_00000013167067577002294260000002504513144481918391_);}
	.st5{fill:url(#SVGID_00000090293970473269058050000007012417193613473170_);}
	.st6{fill:url(#SVGID_00000069387348985633015020000010349376147968778396_);}
	.st7{fill:url(#SVGID_00000003821682942329804600000005837101959363112882_);}
</style>
<g>
	<g>
		<linearGradient id="SVGID_1_" gradientUnits="userSpaceOnUse" x1="4.6528" y1="48.189" x2="98.475" y2="48.189">
			<stop offset="0" style="stop-color:#E62B4A"/>
			<stop offset="1" style="stop-color:#E63736"/>
		</linearGradient>
		<path class="st0" d="M39.3,27c1.6,0,3.1,0.4,4.5,1.2c2.2,1.2,3.7,3,4.4,5.4c0.2,0.9,0.4,1.8,0.4,2.7c0,1.3-0.3,2.6-0.9,3.8    L22,86.2c-0.8,1.5-2,2.7-3.4,3.6c-1.5,0.9-3.1,1.3-4.8,1.3c-2.6,0-4.8-0.9-6.6-2.8c-1.7-1.8-2.6-3.9-2.6-6.4c0-1.6,0.4-3,1.1-4.4    l25.8-46.1c1.6-2.9,4.1-4.3,7.5-4.4C39.2,27,39.2,27,39.3,27z M54.5,5.8c1,0.3,1.8,0.8,2.6,1.3c1.1,0.9,2,2,2.7,3.2l37.5,67.1    c0.8,1.4,1.2,2.9,1.2,4.4c0,2.5-0.9,4.7-2.8,6.6c-1.8,1.7-3.9,2.6-6.4,2.6c-1.7,0-3.3-0.4-4.8-1.3c-1.5-0.9-2.6-2.1-3.4-3.6    L49.8,30.4c-0.6-1-1.3-1.9-2.1-2.7c-0.7-0.7-1.6-1.3-2.4-1.8c-0.1-0.1-0.2-0.2-0.2-0.2c-1.5-0.7-3-1.2-4.5-1.3c-0.4,0-0.8,0-1.2,0    c-1.5,0-2.9,0.2-4.2,0.7l8.1-14.6C44,9,45,7.8,46.4,6.9c1.6-1.1,3.3-1.6,5.1-1.6C52.6,5.3,53.6,5.5,54.5,5.8z"/>
		
			<linearGradient id="SVGID_00000039098230115263888450000007121215227650230693_" gradientUnits="userSpaceOnUse" x1="132.6462" y1="48.189" x2="208.0964" y2="48.189">
			<stop offset="0" style="stop-color:#E62B4A"/>
			<stop offset="1" style="stop-color:#E63736"/>
		</linearGradient>
		<path style="fill:url(#SVGID_00000039098230115263888450000007121215227650230693_);" d="M155.2,5.3c-1.1,1.1-2.1,2.3-2.8,3.7    c-0.9,1.7-1.3,3.6-1.3,5.5v9.2v49h14.3c2.3,0,4.5-0.3,6.7-1c-0.7,1.6-1.1,3.3-1.1,5c0,2,0.4,4,1.3,5.8c0.7,1.2,1.6,2.3,2.7,3.3    c1.4,1.3,3,2.2,4.9,2.7c-2.3,0.8-4.6,1.4-6.9,1.8c-2.4,0.5-4.8,0.7-7.2,0.7c-0.1,0-0.2,0-0.3,0c-0.1,0-0.2,0-0.3,0h-23.4    c-2.6,0-4.8-0.9-6.6-2.7c-1.7-1.8-2.6-4-2.6-6.5v-0.2V14.5v-0.1c0-2.2,0.7-4.2,2.2-5.9c1.8-2.1,4.1-3.2,6.9-3.2h0.1H155.2z     M165.1,5.3c0.3,0,0.9,0,1.8,0c7.5,0.3,14.4,2.4,20.7,6.3c6.3,3.9,11.3,9,14.9,15.5c3.7,6.5,5.5,13.5,5.5,21.1    c0,7.8-1.9,14.9-5.8,21.5c-3.8,6.6-9,11.7-15.4,15.5c-1.2,0.7-2.5,1-3.9,1c-1.5,0-2.9-0.3-4.2-1c-1.7-0.9-3.1-2.2-4-4    c-0.7-1.4-1-2.9-1-4.4c0-0.5,0-1,0.1-1.5c0.4-2.4,1.5-4.3,3.3-5.8c0.2-0.1,0.3-0.1,0.4-0.1c3.7-2.2,6.6-5.2,8.8-8.9    c2.2-3.8,3.3-7.8,3.3-12.2c0-6.7-2.3-12.4-7-17.1c-4.7-4.7-10.3-7.2-17-7.3c-0.3,0-0.6,0-0.9,0h-2.2c-2.5-0.1-4.7-1-6.4-2.8    c-1.6-1.8-2.4-3.9-2.4-6.4c0-2,0.6-3.9,1.7-5.5c1.8-2.4,4.2-3.6,7.1-3.7H165.1z"/>
		
			<linearGradient id="SVGID_00000165931410725551968900000015579220324653126590_" gradientUnits="userSpaceOnUse" x1="242.2683" y1="48.189" x2="336.0905" y2="48.189">
			<stop offset="0" style="stop-color:#E62B4A"/>
			<stop offset="1" style="stop-color:#E63736"/>
		</linearGradient>
		<path style="fill:url(#SVGID_00000165931410725551968900000015579220324653126590_);" d="M286.1,90.6c-0.9-0.3-1.8-0.8-2.6-1.3    c-1.1-0.9-1.9-2-2.6-3.2l-37.6-67.1c-0.7-1.4-1.1-2.9-1.1-4.4c0-2.5,0.9-4.7,2.7-6.5c1.8-1.8,4-2.7,6.5-2.7c1.7,0,3.3,0.5,4.8,1.3    c1.5,0.9,2.6,2.1,3.4,3.6l31.2,55.7c0.6,1.1,1.3,2,2.1,2.8c0.7,0.7,1.5,1.2,2.3,1.7c0.2,0.1,0.3,0.2,0.4,0.2    c1.4,0.7,2.9,1.2,4.5,1.3c0.4,0,0.8,0,1.2,0c1.4,0,2.8-0.2,4.2-0.7l-8.2,14.6c-0.7,1.5-1.8,2.7-3.1,3.6c-1.6,1.1-3.3,1.6-5.1,1.6    C288.1,91.1,287.1,90.9,286.1,90.6z M301.4,69.4c-1.6,0-3.2-0.4-4.7-1.2c-2.1-1.2-3.6-3-4.3-5.4c-0.2-0.9-0.4-1.8-0.4-2.6    c0-1.4,0.3-2.7,0.9-3.9l25.7-46.1c0.8-1.5,2-2.7,3.4-3.6c1.5-0.9,3.1-1.3,4.8-1.3c2.5,0,4.7,0.9,6.6,2.8c1.7,1.8,2.6,3.9,2.6,6.4    c0,1.6-0.4,3-1.2,4.4L309.1,65c-1.6,2.9-4.1,4.3-7.5,4.4C301.6,69.4,301.5,69.4,301.4,69.4z"/>
		
			<linearGradient id="SVGID_00000147920507747482086930000013692782418075075991_" gradientUnits="userSpaceOnUse" x1="370.2624" y1="48.189" x2="388.6344" y2="48.189">
			<stop offset="0" style="stop-color:#E62B4A"/>
			<stop offset="1" style="stop-color:#E63736"/>
		</linearGradient>
		<path style="fill:url(#SVGID_00000147920507747482086930000013692782418075075991_);" d="M386.3,8.4c1.6,1.7,2.3,3.8,2.3,6.1v26    c-2.4-2.9-5.4-4.3-9.2-4.3c-3.7,0-6.7,1.4-9.2,4.2V14.5v-0.1c0-2.2,0.7-4.2,2.2-5.9c1.8-2.1,4.1-3.2,6.9-3.2h0.2    C382.3,5.3,384.5,6.3,386.3,8.4z M388.6,81.7v0.1c0,2.4-0.8,4.5-2.4,6.2c-1.8,2-4,2.9-6.7,2.9c-2.5,0-4.7-0.9-6.5-2.7    c-1.8-1.8-2.7-4-2.7-6.5v-0.2V56c2.4,2.9,5.5,4.3,9.2,4.3c3.8,0,6.8-1.5,9.2-4.4V81.7z"/>
		
			<linearGradient id="SVGID_00000021086059046312069920000008442610628960743061_" gradientUnits="userSpaceOnUse" x1="422.9301" y1="48.189" x2="498.3802" y2="48.189">
			<stop offset="0" style="stop-color:#E62B4A"/>
			<stop offset="1" style="stop-color:#E63736"/>
		</linearGradient>
		<path style="fill:url(#SVGID_00000021086059046312069920000008442610628960743061_);" d="M488.8,12.2c-2.4,0.1-4.5,0.8-6.5,2.1    c-2,1.5-3.5,3.3-4.4,5.6c-0.6,1.4-0.9,2.9-0.9,4.4c0,0.8,0.1,1.6,0.2,2.3c-3.6-2-7.5-2.9-11.6-2.9c-3.8,0-7.3,0.8-10.7,2.4    c-3.4,1.6-6.2,3.9-8.5,6.7c-3.5,4.5-5.3,9.6-5.3,15.3c0,6.3,2.1,11.8,6.4,16.5c4.8,5.3,10.8,8,18,8c6.5,0,12.1-2.2,16.8-6.7    c0.1-0.1,0.2-0.1,0.2-0.2c0.1,0,0.2-0.1,0.2-0.2c1.7-1.6,3.8-2.4,6.2-2.4c2.5,0,4.7,0.9,6.5,2.6c1.8,1.8,2.7,3.9,2.7,6.6    c0,2.5-0.9,4.7-2.8,6.5l-0.1,0.2c-3.9,3.8-8.5,6.7-13.6,8.8c-5.1,2.1-10.5,3.2-16.2,3.2c-6.9,0-13.3-1.5-19.3-4.6    c-6-3.1-11-7.3-15-12.7c-5.6-7.6-8.5-16.1-8.5-25.6c0-11.5,4-21.4,11.9-29.6c4-4.2,8.7-7.4,14-9.7c5.3-2.3,10.9-3.5,16.9-3.5    C474.1,5.3,481.8,7.6,488.8,12.2z"/>
		
			<linearGradient id="SVGID_00000116197439594542996640000007879735368561949621_" gradientUnits="userSpaceOnUse" x1="532.5521" y1="48.189" x2="608.0023" y2="48.189">
			<stop offset="0" style="stop-color:#E62B4A"/>
			<stop offset="1" style="stop-color:#E63736"/>
		</linearGradient>
		<path style="fill:url(#SVGID_00000116197439594542996640000007879735368561949621_);" d="M555.1,5.3c-1.4,1.1-2.4,2.5-3.2,4.2    c-0.7,1.6-1,3.3-1,5v9.2V39h37.6h0.1c2.8,0,5.1,1.1,7,3.2c1.5,1.7,2.2,3.7,2.2,6c0,2.9-1.1,5.2-3.3,7.1c-1.7,1.4-3.7,2.1-5.9,2.1    h-0.1h-37.6V61c-0.1,2.9-1.2,5.1-3.4,6.9c-1.7,1.3-3.6,2-5.8,2c-3.2,0-5.7-1.3-7.5-3.8c-1.1-1.5-1.6-3.1-1.7-4.9V14.5v-0.1    c0-2.2,0.7-4.1,2.2-5.8c1.8-2.2,4.1-3.3,6.9-3.3h0.1H555.1z M550.9,72.7h47.5c0.2,0,0.4,0,0.7,0c2.4,0.1,4.5,1,6.2,2.8    c1.7,1.8,2.6,3.9,2.6,6.4c0,2.5-0.9,4.7-2.7,6.5c-1.8,1.8-4,2.7-6.5,2.7c-0.2,0-0.3,0-0.5,0h-56.1c-0.1,0-0.2,0-0.5,0    c-2.5,0-4.7-0.9-6.6-2.7c-1.7-1.8-2.6-4-2.6-6.5v-0.2V68.5c2.4,2.8,5.4,4.2,9.2,4.2H550.9z M598.7,5.3h0.1h0.1    c2.4,0.1,4.4,0.9,6,2.4c2,1.8,3.1,4,3.1,6.7c0,2.4-0.8,4.4-2.4,6.1c-1.7,2-3.9,3-6.5,3.1c-0.2,0-0.3,0-0.5,0h-36    c-2.9,0-5.2-1.1-7-3.4c-1.3-1.7-2-3.6-2-5.8c0-1.9,0.5-3.6,1.6-5.3c1.7-2.5,4.1-3.8,7.1-3.9H598.7z"/>
		
			<linearGradient id="SVGID_00000118397933003850285400000003472493279948305808_" gradientUnits="userSpaceOnUse" x1="642.1741" y1="48.189" x2="735.9963" y2="48.189">
			<stop offset="0" style="stop-color:#E62B4A"/>
			<stop offset="1" style="stop-color:#E63736"/>
		</linearGradient>
		<path style="fill:url(#SVGID_00000118397933003850285400000003472493279948305808_);" d="M728.8,5.6c1.9,0.4,3.5,1.3,4.9,2.8    c1.6,1.7,2.3,3.8,2.3,6.1c0,0.2,0,0.4,0,0.6V35c-1.2-1.4-2.7-2.4-4.4-3.2c-1.6-0.7-3.1-1-4.8-1c-2,0-3.9,0.5-5.6,1.3    c-0.9,0.5-2.1,1.4-3.6,2.8c-1.5,1.4-2.4,2.2-2.6,2.4L695.2,55c-0.1,0.1-0.2,0.1-0.2,0.1v0.1c-0.7,0.6-1.5,1-2.3,1.3    c-1.1,0.5-2.3,0.7-3.6,0.7c-1.5,0-2.9-0.4-4.2-1.1c-0.7-0.3-1.3-0.7-2-1.2l-19.2-17.1c-0.2-0.2-0.8-0.8-1.9-1.8    c-1.1-1-2-1.8-2.6-2.3c-1-0.8-2-1.4-2.9-1.8c-1.6-0.7-3.2-1.1-4.9-1.1c-2,0-4,0.5-5.8,1.5c-1.3,0.7-2.4,1.7-3.4,2.8V14.9    c0-0.4,0-0.7,0-0.9c0.1-1.4,0.4-2.7,1-3.8c0.6-1.1,1.4-2.1,2.4-2.9c1.5-1.1,3.3-1.8,5.1-1.8c0.2-0.1,0.3-0.1,0.5-0.1    c1.8,0,3.5,0.5,5.1,1.5c0.7,0.5,1.4,1.1,2.3,2l30.4,27.2L720,8.3c0.2-0.2,0.4-0.3,0.6-0.5c0.7-0.7,1.5-1.2,2.4-1.6    c0.7-0.3,1.5-0.6,2.3-0.7c0.4-0.1,0.8-0.1,1.2-0.1h0.4C727.5,5.3,728.1,5.4,728.8,5.6z M657.2,35.8c2.1,1.8,3.2,4,3.3,6.7v39.2    v0.1c0,2.4-0.8,4.5-2.4,6.2c-1.8,2-4,2.9-6.7,2.9c-2.5,0-4.7-0.9-6.6-2.7c-1.7-1.8-2.6-4-2.6-6.5v-0.2V42.6c0.1-2.4,1-4.5,2.7-6.1    c1.8-1.8,4-2.7,6.5-2.7C653.6,33.7,655.5,34.4,657.2,35.8z M733.5,36.6c1.6,1.6,2.4,3.6,2.4,5.8v39.4v0.1c0,2.4-0.8,4.5-2.4,6.2    c-1.8,2-4,2.9-6.7,2.9c-2.6,0-4.8-0.9-6.6-2.7c-1.7-1.8-2.6-4-2.6-6.5v-0.2V42.4c0-2.5,0.9-4.7,2.8-6.4c1.8-1.6,3.9-2.4,6.4-2.4    C729.5,33.6,731.7,34.6,733.5,36.6z"/>
		
			<linearGradient id="SVGID_00000026150069612607583320000011882206166441412003_" gradientUnits="userSpaceOnUse" x1="770.2908" y1="48.189" x2="845.741" y2="48.189">
			<stop offset="0" style="stop-color:#E62B4A"/>
			<stop offset="1" style="stop-color:#E63736"/>
		</linearGradient>
		<path style="fill:url(#SVGID_00000026150069612607583320000011882206166441412003_);" d="M843,8c1.8,1.8,2.7,4,2.7,6.5    c0,1.1-0.2,2.2-0.6,3.3c-0.3,0.8-1.1,2-2.4,3.6L818.5,50c-0.2,0.3-0.6,0.7-1,1.2c-0.4,0.5-0.8,0.9-0.9,1.1    c-0.9,1.1-1.6,1.9-2.2,2.6c-0.7,0.7-1.6,1.2-2.6,1.7c-1.2,0.6-2.5,0.9-3.8,0.9c-2.3,0-4.3-0.8-6-2.3c-0.4-0.3-1.1-1.1-2.1-2.2    l-26.6-31.5c-1.3-1.6-2.1-2.8-2.4-3.6c-0.4-1.1-0.6-2.3-0.6-3.4c0-2.5,0.9-4.7,2.7-6.5c1.8-1.8,4-2.7,6.5-2.7    c1.7,0,3.3,0.5,4.8,1.3c1.1,0.7,2.2,1.8,3.6,3.6L808,34.1l20.2-24c1.3-1.7,2.5-2.9,3.6-3.6c1.5-0.8,3.1-1.2,4.8-1.2    C839.1,5.3,841.2,6.2,843,8z M807.9,60.4c3.1-0.1,6.2-1.6,9.3-4.4v25.7v0.1c0,2.4-0.8,4.5-2.4,6.2c-1.8,2-4,2.9-6.7,2.9    c-2.6,0-4.8-0.9-6.6-2.8c-1.7-1.7-2.6-3.8-2.6-6.4v-0.2V56C801.8,58.9,804.9,60.4,807.9,60.4z"/>
	</g>
	<path d="M489.2,15c2.9,0,5.3,1.1,7.1,3.4c0.2,0.2,0.3,0.4,0.6,0.7c0.2,0.3,0.3,0.5,0.4,0.6c0.7,1.4,1.1,2.9,1.1,4.4   c0,2.5-0.9,4.7-2.7,6.5c-1.8,1.8-4,2.7-6.5,2.7c-2.4,0-4.6-0.9-6.4-2.6c-0.7-0.7-1.2-1.3-1.6-2c-0.9-1.4-1.3-2.9-1.3-4.7   c0-1,0.2-2,0.5-2.9c0.7-2,1.8-3.5,3.6-4.7c1.5-1.1,3.3-1.6,5.1-1.6H489.2z"/>
	<path d="M379.6,39c2.9,0,5.3,1.1,7.1,3.4c0.2,0.2,0.3,0.4,0.6,0.7c0.2,0.3,0.3,0.5,0.4,0.6c0.7,1.4,1.1,2.9,1.1,4.4   c0,2.5-0.9,4.7-2.7,6.5c-1.8,1.8-4,2.7-6.5,2.7c-2.4,0-4.6-0.9-6.4-2.6c-0.7-0.7-1.2-1.3-1.6-2c-0.9-1.4-1.3-2.9-1.3-4.7   c0-1,0.2-2,0.5-2.9c0.7-2,1.8-3.5,3.6-4.7c1.5-1.1,3.3-1.6,5.1-1.6H379.6z"/>
</g>
</svg>