<svg width="16" height="16" viewBox="0 0 16 16" fill="none" xmlns="http://www.w3.org/2000/svg">
    <path d="M13.5 6.66699C13.5 6.39085 13.2761 6.16699 13 6.16699C12.7239 6.16699 12.5 6.39085 12.5 6.66699H13.5ZM8 14.3337L7.67253 14.7115C7.86047 14.8744 8.13953 14.8744 8.32747 14.7115L8 14.3337ZM8 2.16699C8.27614 2.16699 8.5 1.94313 8.5 1.66699C8.5 1.39085 8.27614 1.16699 8 1.16699V2.16699ZM7.97751 1.16699C7.70137 1.16699 7.47751 1.39085 7.47751 1.66699C7.47751 1.94313 7.70137 2.16699 7.97751 2.16699V1.16699ZM12.5 6.68949C12.5 6.96563 12.7239 7.18949 13 7.18949C13.2762 7.18949 13.5 6.96563 13.5 6.68949H12.5ZM9.83333 6.66699C9.83333 7.67951 9.01252 8.50033 8 8.50033V9.50033C9.56481 9.50033 10.8333 8.2318 10.8333 6.66699H9.83333ZM8 8.50033C6.98748 8.50033 6.16667 7.67951 6.16667 6.66699H5.16667C5.16667 8.2318 6.43519 9.50033 8 9.50033V8.50033ZM6.16667 6.66699C6.16667 5.65447 6.98748 4.83366 8 4.83366V3.83366C6.43519 3.83366 5.16667 5.10219 5.16667 6.66699H6.16667ZM8 4.83366C9.01252 4.83366 9.83333 5.65447 9.83333 6.66699H10.8333C10.8333 5.10219 9.56481 3.83366 8 3.83366V4.83366ZM12.5 6.66699C12.5 7.38324 12.2284 8.19424 11.778 9.03505C11.3308 9.86977 10.7284 10.6952 10.1159 11.4302C9.50472 12.1636 8.89212 12.7968 8.43169 13.247C8.20178 13.4718 8.01058 13.6502 7.87746 13.7719C7.81092 13.8328 7.75895 13.8794 7.72397 13.9105C7.70648 13.926 7.69325 13.9377 7.68458 13.9453C7.68024 13.9491 7.67704 13.9519 7.67502 13.9536C7.67401 13.9545 7.6733 13.9552 7.67288 13.9555C7.67267 13.9557 7.67254 13.9558 7.67248 13.9559C7.67245 13.9559 7.67247 13.9559 7.67245 13.9559C7.67248 13.9559 7.67253 13.9558 8 14.3337C8.32747 14.7115 8.32755 14.7114 8.32766 14.7113C8.32772 14.7113 8.32785 14.7112 8.32798 14.7111C8.32822 14.7108 8.32854 14.7106 8.32894 14.7102C8.32974 14.7095 8.33083 14.7086 8.33223 14.7074C8.33501 14.7049 8.33899 14.7015 8.34411 14.697C8.35436 14.688 8.3692 14.6749 8.38833 14.6579C8.4266 14.6239 8.48205 14.5741 8.55223 14.51C8.69255 14.3817 8.89197 14.1955 9.13081 13.962C9.60788 13.4955 10.2453 12.837 10.8841 12.0704C11.5216 11.3054 12.1692 10.4225 12.6595 9.50727C13.1466 8.59807 13.5 7.61741 13.5 6.66699H12.5ZM8 14.3337C8.32747 13.9558 8.32752 13.9559 8.32755 13.9559C8.32753 13.9559 8.32755 13.9559 8.32752 13.9559C8.32746 13.9558 8.32733 13.9557 8.32712 13.9555C8.3267 13.9552 8.32599 13.9545 8.32498 13.9536C8.32296 13.9519 8.31976 13.9491 8.31542 13.9453C8.30675 13.9377 8.29352 13.926 8.27603 13.9105C8.24105 13.8794 8.18908 13.8328 8.12254 13.7719C7.98942 13.6502 7.79822 13.4718 7.56831 13.247C7.10788 12.7968 6.49528 12.1636 5.88411 11.4302C5.27159 10.6952 4.66916 9.86977 4.22199 9.03505C3.77156 8.19424 3.5 7.38324 3.5 6.66699H2.5C2.5 7.61741 2.85344 8.59807 3.34051 9.50727C3.83084 10.4225 4.47841 11.3054 5.11589 12.0704C5.75472 12.837 6.39212 13.4955 6.86919 13.962C7.10803 14.1955 7.30745 14.3817 7.44777 14.51C7.51795 14.5741 7.5734 14.6239 7.61167 14.6579C7.6308 14.6749 7.64564 14.688 7.65589 14.697C7.66101 14.7015 7.66499 14.7049 7.66777 14.7074C7.66917 14.7086 7.67026 14.7095 7.67106 14.7102C7.67146 14.7106 7.67178 14.7108 7.67202 14.7111C7.67215 14.7112 7.67228 14.7113 7.67234 14.7113C7.67245 14.7114 7.67253 14.7115 8 14.3337ZM3.5 6.66699C3.5 5.47352 3.97411 4.32893 4.81802 3.48501L4.11091 2.7779C3.07946 3.80935 2.5 5.2083 2.5 6.66699H3.5ZM4.81802 3.48501C5.66193 2.6411 6.80653 2.16699 8 2.16699V1.16699C6.54131 1.16699 5.14236 1.74645 4.11091 2.7779L4.81802 3.48501ZM7.97751 2.16699C8.57142 2.16699 9.15951 2.28397 9.7082 2.51125L10.0909 1.58737C9.42086 1.30984 8.70274 1.16699 7.97751 1.16699V2.16699ZM9.7082 2.51125C10.2569 2.73852 10.7555 3.07165 11.1754 3.4916L11.8825 2.78449C11.3697 2.27168 10.7609 1.8649 10.0909 1.58737L9.7082 2.51125ZM11.1754 3.4916C11.5954 3.91155 11.9285 4.41011 12.1558 4.95881L13.0796 4.57612C12.8021 3.9061 12.3953 3.29731 11.8825 2.78449L11.1754 3.4916ZM12.1558 4.95881C12.383 5.5075 12.5 6.09559 12.5 6.68949H13.5C13.5 5.96427 13.3572 5.24614 13.0796 4.57612L12.1558 4.95881Z" fill="black"/>
</svg>