<svg width="20" height="20" viewBox="0 0 20 20" fill="none" xmlns="http://www.w3.org/2000/svg">
    <path fill-rule="evenodd" clip-rule="evenodd" d="M12.0837 17.4997H14.8983C15.4864 17.4986 16.0501 17.2645 16.466 16.8486C16.8818 16.4327 17.1159 15.869 17.117 15.2809V0.833008H9.33578C8.74766 0.834109 8.18396 1.06822 7.7681 1.48408C7.35224 1.89994 7.11813 2.46365 7.11702 3.05176V11.5883L7.08366 11.5882C6.03678 11.5882 5.04616 11.732 4.29512 11.9924C3.31625 12.3327 3.00187 12.7808 2.93295 13.1395C2.92245 13.1763 2.91699 13.2147 2.91699 13.2537V13.307V15.6495C2.91814 15.7493 2.95511 15.8454 3.02116 15.9203C3.18765 16.1171 3.43631 16.294 3.75033 16.4463V17.8423C3.75148 17.9421 3.78844 18.0382 3.85449 18.1131C4.53262 18.9121 6.39824 19.1965 7.91699 19.1965C9.39095 19.1965 11.292 19.0267 11.9795 18.2173C12.0455 18.1424 12.0825 18.0463 12.0837 17.9465V17.4997ZM12.0837 16.6663V15.8631L12.0836 15.859H13.3337C13.4442 15.859 13.5501 15.8152 13.6283 15.737C13.7064 15.6589 13.7503 15.5529 13.7503 15.4424C13.7503 15.3319 13.7064 15.2259 13.6283 15.1478C13.5501 15.0696 13.4442 15.0257 13.3337 15.0257H11.2503V13.307V13.3068C11.2502 12.9297 11.0106 12.3882 9.8722 11.9924C9.3326 11.8053 8.66932 11.6784 7.95036 11.6218V3.05176C7.95091 2.68449 8.09705 2.33243 8.35675 2.07273C8.61644 1.81303 8.96851 1.66689 9.33578 1.66634H16.2837V15.2809C16.2831 15.6482 16.137 16.0003 15.8773 16.26C15.6176 16.5196 15.2655 16.6658 14.8983 16.6663H12.0837ZM7.08366 15.0257C6.04199 15.0257 5.04616 14.882 4.29512 14.6215C4.08402 14.5482 3.90382 14.4698 3.75033 14.3883V15.4766C4.21178 15.862 5.44095 16.2235 7.08366 16.2235C8.85449 16.2235 10.0003 15.9182 10.417 15.5891V15.4424V14.3883C10.2635 14.4698 10.0833 14.5482 9.8722 14.6215C9.12116 14.882 8.13053 15.0257 7.08366 15.0257ZM10.417 13.307C10.417 13.0465 9.24928 12.4215 7.08366 12.4215C4.91803 12.4215 3.75033 13.0465 3.75033 13.307C3.75033 13.5674 4.91803 14.1924 7.08366 14.1924C9.24928 14.1924 10.417 13.5674 10.417 13.307ZM4.58366 17.6673V16.7524C5.28788 16.9472 6.15081 17.0568 7.08366 17.0568C8.04408 17.0568 10.3649 16.9568 11.1462 16.036C11.1767 16.0014 11.201 15.9623 11.2184 15.9204C11.2322 15.9265 11.2426 15.9322 11.2503 15.9371V17.7694C10.8607 18.0715 9.81908 18.3631 7.91699 18.3631C6.18053 18.3631 5.01699 18.0183 4.58366 17.6673ZM13.9348 6.99003C13.88 6.98993 13.8258 6.97903 13.7752 6.95794C13.7246 6.93684 13.6787 6.90598 13.64 6.86711L12.5337 5.76076V10.4505C12.5337 10.561 12.4898 10.667 12.4117 10.7452C12.3335 10.8233 12.2275 10.8672 12.117 10.8672C12.0065 10.8672 11.9005 10.8233 11.8224 10.7452C11.7443 10.667 11.7004 10.561 11.7004 10.4505V5.76125L10.5942 6.86815C10.516 6.94634 10.41 6.99026 10.2994 6.99026C10.1889 6.99026 10.0828 6.94634 10.0046 6.86815C9.92645 6.78997 9.88253 6.68393 9.88253 6.57336C9.88253 6.46279 9.92645 6.35675 10.0046 6.27857L11.6453 4.64003C11.7712 4.5144 11.9418 4.44385 12.1197 4.44385C12.2976 4.44385 12.4683 4.5144 12.5942 4.64003L14.2296 6.27961C14.2876 6.33794 14.327 6.41212 14.3429 6.49281C14.3588 6.5735 14.3505 6.65709 14.319 6.73306C14.2875 6.80902 14.2342 6.87395 14.1658 6.91968C14.0974 6.96541 14.0171 6.98989 13.9348 6.99003Z" fill="#E60000"/>
</svg>