<svg width="16" height="16" viewBox="0 0 16 16" fill="#000000" xmlns="http://www.w3.org/2000/svg">
    <path d="M9.6689 11.4265C9.86872 11.2359 9.87618 10.9194 9.68558 10.7196C9.49497 10.5198 9.17848 10.5124 8.97867 10.703L9.6689 11.4265ZM5.88795 14.3422L6.2322 14.7049L6.23307 14.704L5.88795 14.3422ZM5.75045 14.2589L5.27058 14.1184L5.26969 14.1215L5.75045 14.2589ZM8.18698 7.71521C8.26456 7.45019 8.11261 7.17246 7.84759 7.09488C7.58257 7.0173 7.30484 7.16925 7.22726 7.43427L8.18698 7.71521ZM8.782 7.43433C8.70445 7.1693 8.42674 7.01732 8.16171 7.09487C7.89668 7.17241 7.74469 7.45013 7.82224 7.71516L8.782 7.43433ZM10.258 14.2589L10.7387 14.1215L10.7378 14.1185L10.258 14.2589ZM10.1205 14.3422L9.77547 14.7042L9.77621 14.7049L10.1205 14.3422ZM7.0296 10.7053C6.82972 10.5148 6.51323 10.5224 6.3227 10.7223C6.13217 10.9221 6.13976 11.2386 6.33964 11.4292L7.0296 10.7053ZM5.30191 3.84045C5.49742 3.64543 5.49783 3.32885 5.30281 3.13334C5.1078 2.93783 4.79122 2.93743 4.59571 3.13244L5.30191 3.84045ZM3.67057 6.56686H3.17057H3.67057ZM4.59571 10.0013C4.79122 10.1963 5.1078 10.1959 5.30281 10.0004C5.49783 9.80487 5.49742 9.48829 5.30191 9.29327L4.59571 10.0013ZM3.8346 2.55694C4.03001 2.36183 4.03024 2.04524 3.83513 1.84984C3.64001 1.65443 3.32343 1.65419 3.12802 1.84931L3.8346 2.55694ZM1.67188 6.56687H1.17188H1.67188ZM3.12802 11.2844C3.32343 11.4796 3.64001 11.4793 3.83513 11.2839C4.03024 11.0885 4.03001 10.7719 3.8346 10.5768L3.12802 11.2844ZM11.4127 3.13244C11.2172 2.93743 10.9006 2.93783 10.7056 3.13334C10.5106 3.32885 10.511 3.64543 10.7065 3.84045L11.4127 3.13244ZM10.7065 9.29327C10.511 9.48829 10.5106 9.80487 10.7056 10.0004C10.9006 10.1959 11.2172 10.1963 11.4127 10.0013L10.7065 9.29327ZM12.8804 1.84931C12.685 1.65419 12.3684 1.65443 12.1733 1.84984C11.9782 2.04524 11.9784 2.36183 12.1738 2.55694L12.8804 1.84931ZM12.1738 10.5768C11.9784 10.7719 11.9782 11.0885 12.1733 11.2839C12.3684 11.4793 12.685 11.4796 12.8804 11.2844L12.1738 10.5768ZM9.13215 5.35392H9.63215V4.85392H9.13215V5.35392ZM9.13215 6.48559H8.63215H9.13215ZM8.00048 7.61726V7.11726V7.61726ZM6.86881 6.48559H6.36881H6.86881ZM8.97867 10.703L5.54283 13.9805L6.23307 14.704L9.6689 11.4265L8.97867 10.703ZM5.54371 13.9796C5.60999 13.9167 5.69511 13.8773 5.78597 13.8675L5.89303 14.8618C6.02023 14.8481 6.1394 14.793 6.23219 14.7049L5.54371 13.9796ZM5.78597 13.8675C5.87683 13.8578 5.96838 13.8781 6.04654 13.9255L5.52824 14.7807C5.63765 14.847 5.76583 14.8755 5.89303 14.8618L5.78597 13.8675ZM6.04654 13.9255C6.12469 13.9728 6.1851 14.0446 6.21847 14.1297L5.28753 14.4948C5.33425 14.6139 5.41883 14.7144 5.52824 14.7807L6.04654 13.9255ZM6.21847 14.1297C6.25184 14.2147 6.25632 14.3084 6.23121 14.3963L5.26969 14.1215C5.23454 14.2446 5.24081 14.3757 5.28753 14.4948L6.21847 14.1297ZM6.23031 14.3994L8.18698 7.71521L7.22726 7.43427L5.27059 14.1184L6.23031 14.3994ZM7.82224 7.71516L9.77808 14.3993L10.7378 14.1185L8.782 7.43433L7.82224 7.71516ZM9.7772 14.3963C9.75209 14.3084 9.75656 14.2147 9.78993 14.1297L10.7209 14.4948C10.7676 14.3757 10.7739 14.2445 10.7387 14.1215L9.7772 14.3963ZM9.78993 14.1297C9.82331 14.0446 9.88373 13.9728 9.96187 13.9255L10.4802 14.7807C10.5896 14.7144 10.6742 14.6139 10.7209 14.4948L9.78993 14.1297ZM9.96187 13.9255C10.04 13.8781 10.1316 13.8578 10.2224 13.8675L10.1154 14.8618C10.2426 14.8755 10.3708 14.847 10.4802 14.7807L9.96187 13.9255ZM10.2224 13.8675C10.3133 13.8773 10.3984 13.9167 10.4647 13.9796L9.77621 14.7049C9.869 14.793 9.98818 14.8481 10.1154 14.8618L10.2224 13.8675ZM10.4654 13.9803L7.0296 10.7053L6.33964 11.4292L9.77547 14.7042L10.4654 13.9803ZM4.59571 3.13244C4.14396 3.58304 3.78554 4.11834 3.54099 4.70768L4.46463 5.09095C4.65877 4.6231 4.94329 4.19816 5.30191 3.84045L4.59571 3.13244ZM3.54099 4.70768C3.29644 5.29701 3.17057 5.9288 3.17057 6.56686H4.17057C4.17057 6.06034 4.27049 5.55879 4.46463 5.09095L3.54099 4.70768ZM3.17057 6.56686C3.17057 7.20492 3.29644 7.83671 3.54099 8.42604L4.46463 8.04277C4.27049 7.57493 4.17057 7.07338 4.17057 6.56686H3.17057ZM3.54099 8.42604C3.78554 9.01538 4.14396 9.55068 4.59571 10.0013L5.30191 9.29327C4.94329 8.93556 4.65877 8.51062 4.46463 8.04277L3.54099 8.42604ZM3.12802 1.84931C2.50791 2.46849 2.01595 3.20386 1.6803 4.01335L2.60404 4.39638C2.88934 3.70832 3.3075 3.08325 3.8346 2.55694L3.12802 1.84931ZM1.6803 4.01335C1.34464 4.82284 1.17188 5.69056 1.17188 6.56687H2.17188C2.17188 5.822 2.31873 5.08444 2.60404 4.39638L1.6803 4.01335ZM1.17188 6.56687C1.17188 7.44319 1.34464 8.31091 1.6803 9.1204L2.60404 8.73737C2.31873 8.04931 2.17188 7.31175 2.17188 6.56687H1.17188ZM1.6803 9.1204C2.01595 9.92989 2.50791 10.6653 3.12802 11.2844L3.8346 10.5768C3.3075 10.0505 2.88934 9.42543 2.60404 8.73737L1.6803 9.1204ZM10.7065 3.84045C11.0651 4.19816 11.3497 4.6231 11.5438 5.09095L12.4674 4.70768C12.2229 4.11834 11.8645 3.58304 11.4127 3.13244L10.7065 3.84045ZM11.5438 5.09095C11.7379 5.55879 11.8379 6.06034 11.8379 6.56686H12.8379C12.8379 5.9288 12.712 5.29701 12.4674 4.70768L11.5438 5.09095ZM11.8379 6.56686C11.8379 7.07338 11.7379 7.57493 11.5438 8.04277L12.4674 8.42604C12.712 7.83671 12.8379 7.20492 12.8379 6.56686H11.8379ZM11.5438 8.04277C11.3497 8.51062 11.0651 8.93556 10.7065 9.29327L11.4127 10.0013C11.8645 9.55068 12.2229 9.01538 12.4674 8.42604L11.5438 8.04277ZM12.1738 2.55694C12.7009 3.08325 13.1191 3.70832 13.4044 4.39638L14.3281 4.01335C13.9925 3.20386 13.5005 2.46849 12.8804 1.84931L12.1738 2.55694ZM13.4044 4.39638C13.6897 5.08444 13.8366 5.822 13.8366 6.56687H14.8366C14.8366 5.69056 14.6638 4.82284 14.3281 4.01335L13.4044 4.39638ZM13.8366 6.56687C13.8366 7.31175 13.6897 8.04931 13.4044 8.73737L14.3281 9.1204C14.6638 8.31091 14.8366 7.44319 14.8366 6.56687H13.8366ZM13.4044 8.73737C13.1191 9.42543 12.7009 10.0505 12.1738 10.5768L12.8804 11.2844C13.5005 10.6653 13.9925 9.92989 14.3281 9.1204L13.4044 8.73737ZM8.00048 5.85392H9.13215V4.85392H8.00048V5.85392ZM8.63215 5.35392V6.48559H9.63215V5.35392H8.63215ZM8.63215 6.48559C8.63215 6.65312 8.5656 6.81379 8.44713 6.93225L9.15424 7.63935C9.46024 7.33336 9.63215 6.91834 9.63215 6.48559H8.63215ZM8.44713 6.93225C8.32867 7.05071 8.16801 7.11726 8.00048 7.11726V8.11726C8.43322 8.11726 8.84824 7.94535 9.15424 7.63935L8.44713 6.93225ZM8.00048 7.11726C7.83295 7.11726 7.67228 7.05071 7.55382 6.93225L6.84672 7.63935C7.15271 7.94535 7.56773 8.11726 8.00048 8.11726V7.11726ZM7.55382 6.93225C7.43536 6.81379 7.36881 6.65312 7.36881 6.48559H6.36881C6.36881 6.91834 6.54072 7.33336 6.84672 7.63935L7.55382 6.93225ZM7.36881 6.48559C7.36881 6.31806 7.43536 6.1574 7.55382 6.03893L6.84672 5.33183C6.54072 5.63783 6.36881 6.05285 6.36881 6.48559H7.36881ZM7.55382 6.03893C7.67228 5.92047 7.83295 5.85392 8.00048 5.85392V4.85392C7.56773 4.85392 7.15271 5.02583 6.84672 5.33183L7.55382 6.03893Z" fill="black"/>
</svg>