<svg width="24" height="24" viewBox="0 0 24 24" fill="none" xmlns="http://www.w3.org/2000/svg">
    <path d="M4.17773 21.0005C4.17773 21.2766 4.40159 21.5005 4.67773 21.5005C4.95388 21.5005 5.17773 21.2766 5.17773 21.0005H4.17773ZM18.8227 21.0005C18.8227 21.2766 19.0466 21.5005 19.3227 21.5005C19.5989 21.5005 19.8227 21.2766 19.8227 21.0005H18.8227ZM16.134 7.65914H15.634H16.134ZM12.0002 3.52539V3.02539V3.52539ZM16.134 3.52539H16.634V3.02539H16.134V3.52539ZM5.17773 21.0005C5.17773 16.324 8.31489 12.6967 12.0002 12.6967V11.6967C7.59808 11.6967 4.17773 15.952 4.17773 21.0005H5.17773ZM12.0002 12.6967C15.6856 12.6967 18.8227 16.324 18.8227 21.0005H19.8227C19.8227 15.952 16.4024 11.6967 12.0002 11.6967V12.6967ZM15.634 7.65914C15.634 8.37783 15.4209 9.08038 15.0216 9.67794L15.853 10.2335C16.3622 9.4715 16.634 8.57561 16.634 7.65914H15.634ZM15.0216 9.67794C14.6223 10.2755 14.0548 10.7413 13.3908 11.0163L13.7735 11.9402C14.6202 11.5894 15.3439 10.9955 15.853 10.2335L15.0216 9.67794ZM13.3908 11.0163C12.7268 11.2913 11.9962 11.3633 11.2913 11.2231L11.0962 12.2039C11.9951 12.3826 12.9268 12.2909 13.7735 11.9402L13.3908 11.0163ZM11.2913 11.2231C10.5864 11.0829 9.93896 10.7368 9.43077 10.2286L8.72366 10.9357C9.3717 11.5837 10.1974 12.0251 11.0962 12.2039L11.2913 11.2231ZM9.43077 10.2286C8.92258 9.7204 8.5765 9.07293 8.43629 8.36805L7.4555 8.56314C7.6343 9.462 8.07562 10.2877 8.72366 10.9357L9.43077 10.2286ZM8.43629 8.36805C8.29608 7.66317 8.36804 6.93255 8.64307 6.26856L7.71919 5.88588C7.36847 6.73259 7.27671 7.66428 7.4555 8.56314L8.43629 8.36805ZM8.64307 6.26856C8.9181 5.60458 9.38384 5.03707 9.98141 4.63779L9.42584 3.80632C8.66383 4.31548 8.06991 5.03917 7.71919 5.88588L8.64307 6.26856ZM9.98141 4.63779C10.579 4.23851 11.2815 4.02539 12.0002 4.02539V3.02539C11.0837 3.02539 10.1879 3.29716 9.42584 3.80632L9.98141 4.63779ZM12.0002 4.02539H16.134V3.02539H12.0002V4.02539ZM15.634 3.52539V7.65914H16.634V3.52539H15.634Z" fill="#0D0D0D"/>
</svg>